<mxfile host="app.diagrams.net" modified="2024-02-26T15:07:22.305Z" agent="Mozilla/5.0 (Windows NT 10.0; Win64; x64) AppleWebKit/537.36 (KHTML, like Gecko) Chrome/122.0.0.0 Safari/537.36" etag="DyKyO7xzqy1ZbhZ9EJfh" version="23.1.6" type="device">
  <diagram id="C5RBs43oDa-KdzZeNtuy" name="Page-1">
    <mxGraphModel dx="890" dy="1035" grid="1" gridSize="10" guides="1" tooltips="1" connect="1" arrows="1" fold="1" page="1" pageScale="1" pageWidth="827" pageHeight="1169" math="0" shadow="0">
      <root>
        <mxCell id="WIyWlLk6GJQsqaUBKTNV-0" />
        <mxCell id="WIyWlLk6GJQsqaUBKTNV-1" parent="WIyWlLk6GJQsqaUBKTNV-0" />
        <mxCell id="QMuWpzItYV_JaaLa7jYG-0" value="start" style="ellipse;whiteSpace=wrap;html=1;" vertex="1" parent="WIyWlLk6GJQsqaUBKTNV-1">
          <mxGeometry x="80" y="40" width="120" height="80" as="geometry" />
        </mxCell>
        <mxCell id="QMuWpzItYV_JaaLa7jYG-4" value="" style="edgeStyle=none;curved=1;rounded=0;orthogonalLoop=1;jettySize=auto;html=1;fontSize=12;startSize=8;endSize=8;exitX=0.5;exitY=1;exitDx=0;exitDy=0;" edge="1" parent="WIyWlLk6GJQsqaUBKTNV-1" source="QMuWpzItYV_JaaLa7jYG-0" target="QMuWpzItYV_JaaLa7jYG-3">
          <mxGeometry relative="1" as="geometry">
            <mxPoint x="140" y="230" as="sourcePoint" />
          </mxGeometry>
        </mxCell>
        <mxCell id="QMuWpzItYV_JaaLa7jYG-9" value="" style="edgeStyle=none;curved=1;rounded=0;orthogonalLoop=1;jettySize=auto;html=1;fontSize=12;startSize=8;endSize=8;" edge="1" parent="WIyWlLk6GJQsqaUBKTNV-1" source="QMuWpzItYV_JaaLa7jYG-3" target="QMuWpzItYV_JaaLa7jYG-8">
          <mxGeometry relative="1" as="geometry" />
        </mxCell>
        <mxCell id="QMuWpzItYV_JaaLa7jYG-3" value="while True" style="rhombus;whiteSpace=wrap;html=1;" vertex="1" parent="WIyWlLk6GJQsqaUBKTNV-1">
          <mxGeometry x="75" y="290" width="130" height="80" as="geometry" />
        </mxCell>
        <mxCell id="QMuWpzItYV_JaaLa7jYG-36" value="" style="edgeStyle=none;curved=1;rounded=0;orthogonalLoop=1;jettySize=auto;html=1;fontSize=12;startSize=8;endSize=8;entryX=0;entryY=0.5;entryDx=0;entryDy=0;entryPerimeter=0;" edge="1" parent="WIyWlLk6GJQsqaUBKTNV-1" source="QMuWpzItYV_JaaLa7jYG-8" target="QMuWpzItYV_JaaLa7jYG-37">
          <mxGeometry relative="1" as="geometry">
            <mxPoint x="430" y="330" as="targetPoint" />
          </mxGeometry>
        </mxCell>
        <mxCell id="QMuWpzItYV_JaaLa7jYG-8" value="start_stop is False&lt;br&gt;and&lt;br&gt;&amp;nbsp;radio configuration to group 23" style="whiteSpace=wrap;html=1;" vertex="1" parent="WIyWlLk6GJQsqaUBKTNV-1">
          <mxGeometry x="250" y="300" width="120" height="60" as="geometry" />
        </mxCell>
        <mxCell id="QMuWpzItYV_JaaLa7jYG-15" value="" style="edgeStyle=none;curved=1;rounded=0;orthogonalLoop=1;jettySize=auto;html=1;fontSize=12;startSize=8;endSize=8;" edge="1" parent="WIyWlLk6GJQsqaUBKTNV-1" source="QMuWpzItYV_JaaLa7jYG-12" target="QMuWpzItYV_JaaLa7jYG-14">
          <mxGeometry relative="1" as="geometry" />
        </mxCell>
        <mxCell id="QMuWpzItYV_JaaLa7jYG-54" value="True" style="edgeLabel;html=1;align=center;verticalAlign=middle;resizable=0;points=[];fontSize=12;" vertex="1" connectable="0" parent="QMuWpzItYV_JaaLa7jYG-15">
          <mxGeometry x="-0.3913" y="2" relative="1" as="geometry">
            <mxPoint as="offset" />
          </mxGeometry>
        </mxCell>
        <mxCell id="QMuWpzItYV_JaaLa7jYG-12" value="if device is shaken" style="rhombus;whiteSpace=wrap;html=1;" vertex="1" parent="WIyWlLk6GJQsqaUBKTNV-1">
          <mxGeometry x="175" y="450" width="130" height="80" as="geometry" />
        </mxCell>
        <mxCell id="QMuWpzItYV_JaaLa7jYG-17" value="" style="edgeStyle=none;curved=1;rounded=0;orthogonalLoop=1;jettySize=auto;html=1;fontSize=12;startSize=8;endSize=8;" edge="1" parent="WIyWlLk6GJQsqaUBKTNV-1" source="QMuWpzItYV_JaaLa7jYG-14" target="QMuWpzItYV_JaaLa7jYG-16">
          <mxGeometry relative="1" as="geometry" />
        </mxCell>
        <mxCell id="QMuWpzItYV_JaaLa7jYG-14" value="&lt;div&gt;display&amp;nbsp;&lt;/div&gt;&lt;div&gt;&quot;ready to start hold B&quot;&lt;/div&gt;" style="whiteSpace=wrap;html=1;" vertex="1" parent="WIyWlLk6GJQsqaUBKTNV-1">
          <mxGeometry x="180" y="560" width="120" height="60" as="geometry" />
        </mxCell>
        <mxCell id="QMuWpzItYV_JaaLa7jYG-19" value="" style="edgeStyle=none;curved=1;rounded=0;orthogonalLoop=1;jettySize=auto;html=1;fontSize=12;startSize=8;endSize=8;" edge="1" parent="WIyWlLk6GJQsqaUBKTNV-1" source="QMuWpzItYV_JaaLa7jYG-16" target="QMuWpzItYV_JaaLa7jYG-18">
          <mxGeometry relative="1" as="geometry" />
        </mxCell>
        <mxCell id="QMuWpzItYV_JaaLa7jYG-16" value="&lt;div&gt;clear display&lt;/div&gt;&lt;div&gt;and sleep for 3 seconds&lt;/div&gt;" style="whiteSpace=wrap;html=1;" vertex="1" parent="WIyWlLk6GJQsqaUBKTNV-1">
          <mxGeometry x="180" y="650" width="120" height="60" as="geometry" />
        </mxCell>
        <mxCell id="QMuWpzItYV_JaaLa7jYG-21" value="" style="edgeStyle=none;curved=1;rounded=0;orthogonalLoop=1;jettySize=auto;html=1;fontSize=12;startSize=8;endSize=8;" edge="1" parent="WIyWlLk6GJQsqaUBKTNV-1" source="QMuWpzItYV_JaaLa7jYG-18">
          <mxGeometry relative="1" as="geometry">
            <mxPoint x="360" y="800" as="targetPoint" />
          </mxGeometry>
        </mxCell>
        <mxCell id="QMuWpzItYV_JaaLa7jYG-22" value="True" style="edgeLabel;html=1;align=center;verticalAlign=middle;resizable=0;points=[];fontSize=12;" vertex="1" connectable="0" parent="QMuWpzItYV_JaaLa7jYG-21">
          <mxGeometry x="-0.3333" y="3" relative="1" as="geometry">
            <mxPoint as="offset" />
          </mxGeometry>
        </mxCell>
        <mxCell id="QMuWpzItYV_JaaLa7jYG-26" value="" style="edgeStyle=none;curved=1;rounded=0;orthogonalLoop=1;jettySize=auto;html=1;fontSize=12;startSize=8;endSize=8;" edge="1" parent="WIyWlLk6GJQsqaUBKTNV-1" source="QMuWpzItYV_JaaLa7jYG-18" target="QMuWpzItYV_JaaLa7jYG-25">
          <mxGeometry relative="1" as="geometry" />
        </mxCell>
        <mxCell id="QMuWpzItYV_JaaLa7jYG-33" value="False" style="edgeLabel;html=1;align=center;verticalAlign=middle;resizable=0;points=[];fontSize=12;" vertex="1" connectable="0" parent="QMuWpzItYV_JaaLa7jYG-26">
          <mxGeometry x="-0.48" relative="1" as="geometry">
            <mxPoint as="offset" />
          </mxGeometry>
        </mxCell>
        <mxCell id="QMuWpzItYV_JaaLa7jYG-18" value="if button B is pressed" style="rhombus;whiteSpace=wrap;html=1;" vertex="1" parent="WIyWlLk6GJQsqaUBKTNV-1">
          <mxGeometry x="175" y="760" width="130" height="80" as="geometry" />
        </mxCell>
        <mxCell id="QMuWpzItYV_JaaLa7jYG-20" value="display&lt;br&gt;&quot;lets go&quot; and start_stop is True" style="whiteSpace=wrap;html=1;" vertex="1" parent="WIyWlLk6GJQsqaUBKTNV-1">
          <mxGeometry x="360" y="770" width="120" height="60" as="geometry" />
        </mxCell>
        <mxCell id="QMuWpzItYV_JaaLa7jYG-25" value="display &quot;thats ok, just shake me again when ready&quot;&amp;nbsp;" style="whiteSpace=wrap;html=1;" vertex="1" parent="WIyWlLk6GJQsqaUBKTNV-1">
          <mxGeometry x="180" y="890" width="120" height="60" as="geometry" />
        </mxCell>
        <mxCell id="QMuWpzItYV_JaaLa7jYG-29" value="" style="endArrow=none;html=1;rounded=0;fontSize=12;startSize=8;endSize=8;" edge="1" parent="WIyWlLk6GJQsqaUBKTNV-1">
          <mxGeometry width="50" height="50" relative="1" as="geometry">
            <mxPoint x="100" y="490" as="sourcePoint" />
            <mxPoint x="100" y="1040" as="targetPoint" />
          </mxGeometry>
        </mxCell>
        <mxCell id="QMuWpzItYV_JaaLa7jYG-30" value="" style="endArrow=none;html=1;rounded=0;fontSize=12;startSize=8;endSize=8;" edge="1" parent="WIyWlLk6GJQsqaUBKTNV-1">
          <mxGeometry width="50" height="50" relative="1" as="geometry">
            <mxPoint x="239.37" y="950" as="sourcePoint" />
            <mxPoint x="239.87" y="1040" as="targetPoint" />
          </mxGeometry>
        </mxCell>
        <mxCell id="QMuWpzItYV_JaaLa7jYG-31" value="" style="endArrow=none;html=1;rounded=0;fontSize=12;startSize=8;endSize=8;" edge="1" parent="WIyWlLk6GJQsqaUBKTNV-1">
          <mxGeometry width="50" height="50" relative="1" as="geometry">
            <mxPoint x="100" y="1040" as="sourcePoint" />
            <mxPoint x="240" y="1040" as="targetPoint" />
          </mxGeometry>
        </mxCell>
        <mxCell id="QMuWpzItYV_JaaLa7jYG-37" value="while start_stop is&lt;br&gt;&amp;nbsp;False" style="rhombus;whiteSpace=wrap;html=1;" vertex="1" parent="WIyWlLk6GJQsqaUBKTNV-1">
          <mxGeometry x="460" y="290" width="120" height="80" as="geometry" />
        </mxCell>
        <mxCell id="QMuWpzItYV_JaaLa7jYG-41" value="" style="endArrow=classic;html=1;rounded=0;fontSize=12;startSize=8;endSize=8;entryX=0;entryY=0.5;entryDx=0;entryDy=0;" edge="1" parent="WIyWlLk6GJQsqaUBKTNV-1" target="QMuWpzItYV_JaaLa7jYG-12">
          <mxGeometry width="50" height="50" relative="1" as="geometry">
            <mxPoint x="100" y="490" as="sourcePoint" />
            <mxPoint x="170" y="490" as="targetPoint" />
          </mxGeometry>
        </mxCell>
        <mxCell id="QMuWpzItYV_JaaLa7jYG-46" value="" style="endArrow=classic;html=1;rounded=0;fontSize=12;startSize=8;endSize=8;entryX=0.5;entryY=0;entryDx=0;entryDy=0;" edge="1" parent="WIyWlLk6GJQsqaUBKTNV-1" target="QMuWpzItYV_JaaLa7jYG-12">
          <mxGeometry width="50" height="50" relative="1" as="geometry">
            <mxPoint x="240" y="400" as="sourcePoint" />
            <mxPoint x="410" y="370" as="targetPoint" />
          </mxGeometry>
        </mxCell>
        <mxCell id="QMuWpzItYV_JaaLa7jYG-48" value="" style="endArrow=none;html=1;rounded=0;fontSize=12;startSize=8;endSize=8;" edge="1" parent="WIyWlLk6GJQsqaUBKTNV-1">
          <mxGeometry width="50" height="50" relative="1" as="geometry">
            <mxPoint x="240" y="400" as="sourcePoint" />
            <mxPoint x="520" y="370" as="targetPoint" />
            <Array as="points">
              <mxPoint x="520" y="400" />
            </Array>
          </mxGeometry>
        </mxCell>
        <mxCell id="QMuWpzItYV_JaaLa7jYG-53" value="True" style="edgeLabel;html=1;align=center;verticalAlign=middle;resizable=0;points=[];fontSize=12;" vertex="1" connectable="0" parent="QMuWpzItYV_JaaLa7jYG-48">
          <mxGeometry x="0.3027" y="5" relative="1" as="geometry">
            <mxPoint as="offset" />
          </mxGeometry>
        </mxCell>
        <mxCell id="QMuWpzItYV_JaaLa7jYG-52" value="" style="endArrow=classic;html=1;rounded=0;fontSize=12;startSize=8;endSize=8;entryX=1;entryY=0.5;entryDx=0;entryDy=0;" edge="1" parent="WIyWlLk6GJQsqaUBKTNV-1" target="QMuWpzItYV_JaaLa7jYG-37">
          <mxGeometry width="50" height="50" relative="1" as="geometry">
            <mxPoint x="480" y="800" as="sourcePoint" />
            <mxPoint x="530" y="750" as="targetPoint" />
            <Array as="points">
              <mxPoint x="640" y="800" />
              <mxPoint x="640" y="330" />
            </Array>
          </mxGeometry>
        </mxCell>
        <mxCell id="QMuWpzItYV_JaaLa7jYG-60" style="edgeStyle=none;curved=1;rounded=0;orthogonalLoop=1;jettySize=auto;html=1;fontSize=12;startSize=8;endSize=8;entryX=0.5;entryY=0;entryDx=0;entryDy=0;" edge="1" parent="WIyWlLk6GJQsqaUBKTNV-1" target="QMuWpzItYV_JaaLa7jYG-63">
          <mxGeometry relative="1" as="geometry">
            <mxPoint x="239.0954545454543" y="1280" as="targetPoint" />
            <mxPoint x="240" y="1170" as="sourcePoint" />
          </mxGeometry>
        </mxCell>
        <mxCell id="QMuWpzItYV_JaaLa7jYG-56" value="weight is 0&lt;br&gt;choseweight is False&lt;br&gt;x is False" style="rounded=0;whiteSpace=wrap;html=1;" vertex="1" parent="WIyWlLk6GJQsqaUBKTNV-1">
          <mxGeometry x="680" y="560" width="120" height="60" as="geometry" />
        </mxCell>
        <mxCell id="QMuWpzItYV_JaaLa7jYG-58" value="" style="endArrow=none;html=1;rounded=0;fontSize=12;startSize=8;endSize=8;" edge="1" parent="WIyWlLk6GJQsqaUBKTNV-1">
          <mxGeometry width="50" height="50" relative="1" as="geometry">
            <mxPoint x="520" y="290" as="sourcePoint" />
            <mxPoint x="740" y="460" as="targetPoint" />
            <Array as="points">
              <mxPoint x="520" y="200" />
              <mxPoint x="740" y="200" />
            </Array>
          </mxGeometry>
        </mxCell>
        <mxCell id="QMuWpzItYV_JaaLa7jYG-59" value="" style="endArrow=classic;html=1;rounded=0;fontSize=12;startSize=8;endSize=8;entryX=0.5;entryY=0;entryDx=0;entryDy=0;" edge="1" parent="WIyWlLk6GJQsqaUBKTNV-1" target="QMuWpzItYV_JaaLa7jYG-56">
          <mxGeometry width="50" height="50" relative="1" as="geometry">
            <mxPoint x="740" y="460" as="sourcePoint" />
            <mxPoint x="760" y="610" as="targetPoint" />
          </mxGeometry>
        </mxCell>
        <mxCell id="QMuWpzItYV_JaaLa7jYG-61" value="" style="endArrow=classic;html=1;rounded=0;fontSize=12;startSize=8;endSize=8;entryX=0;entryY=0.5;entryDx=0;entryDy=0;" edge="1" parent="WIyWlLk6GJQsqaUBKTNV-1" target="QMuWpzItYV_JaaLa7jYG-3">
          <mxGeometry width="50" height="50" relative="1" as="geometry">
            <mxPoint x="40" y="330" as="sourcePoint" />
            <mxPoint x="70" y="340" as="targetPoint" />
          </mxGeometry>
        </mxCell>
        <mxCell id="QMuWpzItYV_JaaLa7jYG-62" value="" style="endArrow=none;html=1;rounded=0;fontSize=12;startSize=8;endSize=8;" edge="1" parent="WIyWlLk6GJQsqaUBKTNV-1">
          <mxGeometry width="50" height="50" relative="1" as="geometry">
            <mxPoint x="40" y="330" as="sourcePoint" />
            <mxPoint x="40" y="1040.5128205128206" as="targetPoint" />
          </mxGeometry>
        </mxCell>
        <mxCell id="QMuWpzItYV_JaaLa7jYG-66" style="edgeStyle=none;curved=1;rounded=0;orthogonalLoop=1;jettySize=auto;html=1;exitX=0.5;exitY=1;exitDx=0;exitDy=0;entryX=0.5;entryY=0;entryDx=0;entryDy=0;fontSize=12;startSize=8;endSize=8;" edge="1" parent="WIyWlLk6GJQsqaUBKTNV-1" source="QMuWpzItYV_JaaLa7jYG-63" target="QMuWpzItYV_JaaLa7jYG-65">
          <mxGeometry relative="1" as="geometry" />
        </mxCell>
        <mxCell id="QMuWpzItYV_JaaLa7jYG-63" value="while x is Fasle" style="rhombus;whiteSpace=wrap;html=1;" vertex="1" parent="WIyWlLk6GJQsqaUBKTNV-1">
          <mxGeometry x="180" y="1270" width="120" height="80" as="geometry" />
        </mxCell>
        <mxCell id="QMuWpzItYV_JaaLa7jYG-64" value="" style="endArrow=none;html=1;rounded=0;fontSize=12;startSize=8;endSize=8;entryX=0.5;entryY=1;entryDx=0;entryDy=0;" edge="1" parent="WIyWlLk6GJQsqaUBKTNV-1" target="QMuWpzItYV_JaaLa7jYG-56">
          <mxGeometry width="50" height="50" relative="1" as="geometry">
            <mxPoint x="240" y="1180" as="sourcePoint" />
            <mxPoint x="460" y="1350" as="targetPoint" />
            <Array as="points">
              <mxPoint x="240" y="1090" />
              <mxPoint x="460" y="1090" />
              <mxPoint x="740" y="1090" />
            </Array>
          </mxGeometry>
        </mxCell>
        <mxCell id="QMuWpzItYV_JaaLa7jYG-70" style="edgeStyle=none;curved=1;rounded=0;orthogonalLoop=1;jettySize=auto;html=1;exitX=1;exitY=0.5;exitDx=0;exitDy=0;entryX=0;entryY=0.5;entryDx=0;entryDy=0;fontSize=12;startSize=8;endSize=8;" edge="1" parent="WIyWlLk6GJQsqaUBKTNV-1" source="QMuWpzItYV_JaaLa7jYG-65" target="QMuWpzItYV_JaaLa7jYG-69">
          <mxGeometry relative="1" as="geometry" />
        </mxCell>
        <mxCell id="QMuWpzItYV_JaaLa7jYG-65" value="display&lt;br&gt;&quot;lets go&quot; and start_stop is True" style="whiteSpace=wrap;html=1;" vertex="1" parent="WIyWlLk6GJQsqaUBKTNV-1">
          <mxGeometry x="180" y="1380" width="120" height="60" as="geometry" />
        </mxCell>
        <mxCell id="QMuWpzItYV_JaaLa7jYG-69" value="while x is Fasle" style="rhombus;whiteSpace=wrap;html=1;" vertex="1" parent="WIyWlLk6GJQsqaUBKTNV-1">
          <mxGeometry x="370" y="1370" width="120" height="80" as="geometry" />
        </mxCell>
      </root>
    </mxGraphModel>
  </diagram>
</mxfile>
